<svg xmlns="http://www.w3.org/2000/svg" viewBox="0 0 100 100">
  <!-- 背景圆形 -->
  <circle cx="50" cy="50" r="45" fill="#4A90E2" opacity="0.1"/>
  
  <!-- 麦克风图标 -->
  <g transform="translate(50, 50)">
    <!-- 麦克风主体 -->
    <rect x="-8" y="-25" width="16" height="25" rx="8" fill="#4A90E2"/>
    
    <!-- 麦克风头部 -->
    <ellipse cx="0" cy="-25" rx="12" ry="8" fill="#4A90E2"/>
    
    <!-- 麦克风底座 -->
    <rect x="-12" y="0" width="24" height="4" rx="2" fill="#4A90E2"/>
    
    <!-- 声波线 -->
    <path d="M 20 -20 Q 25 -20 25 -15 T 20 -10" stroke="#4A90E2" stroke-width="2" fill="none"/>
    <path d="M 25 -15 Q 30 -15 30 -10 T 25 -5" stroke="#4A90E2" stroke-width="2" fill="none"/>
    <path d="M 30 -10 Q 35 -10 35 -5 T 30 0" stroke="#4A90E2" stroke-width="2" fill="none"/>
    
    <!-- 反方向声波线 -->
    <path d="M -20 -20 Q -25 -20 -25 -15 T -20 -10" stroke="#4A90E2" stroke-width="2" fill="none"/>
    <path d="M -25 -15 Q -30 -15 -30 -10 T -25 -5" stroke="#4A90E2" stroke-width="2" fill="none"/>
    <path d="M -30 -10 Q -35 -10 -35 -5 T -30 0" stroke="#4A90E2" stroke-width="2" fill="none"/>
  </g>
  
  <!-- 装饰性元素 -->
  <circle cx="25" cy="25" r="3" fill="#4A90E2" opacity="0.6"/>
  <circle cx="75" cy="30" r="2" fill="#4A90E2" opacity="0.4"/>
  <circle cx="20" cy="70" r="2.5" fill="#4A90E2" opacity="0.5"/>
</svg>
