<svg xmlns="http://www.w3.org/2000/svg" width="200" height="200" viewBox="0 0 200 200">
  <defs>
    <linearGradient id="grad1" x1="0%" y1="0%" x2="100%" y2="100%">
      <stop offset="0%" style="stop-color:#FF8008;stop-opacity:1" />
      <stop offset="100%" style="stop-color:#FFC837;stop-opacity:1" />
    </linearGradient>
  </defs>
  <circle cx="100" cy="100" r="100" fill="url(#grad1)" />
  <circle cx="100" cy="85" r="40" fill="white" opacity="0.8" />
  <path d="M100,135 C65,135 40,160 40,200 L160,200 C160,160 135,135 100,135 Z" fill="white" opacity="0.8" />
  <!-- 头发 Hair -->
  <path d="M60,85 C60,55 80,45 100,45 C120,45 140,55 140,85 C140,95 135,85 130,80 C125,75 115,70 100,70 C85,70 75,75 70,80 C65,85 60,95 60,85 Z" fill="#333" />
</svg>