<svg xmlns="http://www.w3.org/2000/svg" width="200" height="200" viewBox="0 0 200 200">
  <defs>
    <linearGradient id="grad1" x1="0%" y1="0%" x2="100%" y2="100%">
      <stop offset="0%" style="stop-color:#8E2DE2;stop-opacity:1" />
      <stop offset="100%" style="stop-color:#4A00E0;stop-opacity:1" />
    </linearGradient>
  </defs>
  <circle cx="100" cy="100" r="100" fill="url(#grad1)" />
  <circle cx="100" cy="85" r="40" fill="white" opacity="0.8" />
  <path d="M100,135 C65,135 40,160 40,200 L160,200 C160,160 135,135 100,135 Z" fill="white" opacity="0.8" />
  <!-- 胡子 Beard -->
  <path d="M100,125 C85,125 75,115 70,110 C65,115 60,125 60,135 C60,145 70,150 80,150 C90,150 95,145 100,145 C105,145 110,150 120,150 C130,150 140,145 140,135 C140,125 135,115 130,110 C125,115 115,125 100,125 Z" fill="#333" />
  <!-- 眼镜 Glasses -->
  <circle cx="80" cy="85" r="15" fill="none" stroke="#333" stroke-width="3" />
  <circle cx="120" cy="85" r="15" fill="none" stroke="#333" stroke-width="3" />
  <line x1="95" y1="85" x2="105" y2="85" stroke="#333" stroke-width="3" />
</svg>